<?xml version="1.0" encoding="utf-8"?>
<!-- Generator: Adobe Illustrator 25.0.1, SVG Export Plug-In . SVG Version: 6.00 Build 0)  -->
<svg version="1.1" id="Layer_1" xmlns="http://www.w3.org/2000/svg" xmlns:xlink="http://www.w3.org/1999/xlink" x="0px" y="0px"
	 viewBox="0 0 512 512" style="enable-background:new 0 0 512 512;" xml:space="preserve">
<style type="text/css">
	.st0{stroke:#000000;stroke-miterlimit:10;}
</style>
<g>
	<path d="M256,15c32.5,0,64.1,6.4,93.8,18.9c28.7,12.1,54.5,29.5,76.6,51.7c22.1,22.1,39.5,47.9,51.7,76.6
		c12.6,29.7,18.9,61.3,18.9,93.8s-6.4,64.1-18.9,93.8c-12.1,28.7-29.5,54.5-51.7,76.6c-22.1,22.1-47.9,39.5-76.6,51.7
		C320.1,490.6,288.5,497,256,497s-64.1-6.4-93.8-18.9c-28.7-12.1-54.5-29.5-76.6-51.7c-22.1-22.1-39.5-47.9-51.7-76.6
		C21.4,320.1,15,288.5,15,256s6.4-64.1,18.9-93.8c12.1-28.7,29.5-54.5,51.7-76.6c22.1-22.1,47.9-39.5,76.6-51.7
		C191.9,21.4,223.5,15,256,15 M256,0C114.6,0,0,114.6,0,256s114.6,256,256,256s256-114.6,256-256S397.4,0,256,0L256,0z"/>
</g>
<path class="st0" d="M253.5,34.3c19.5,5.6,32.1,36.8,13.7,58.3c-15.9,19.7-15.5,30.7-13.7,45.5c-14.3-14.3-12.9-29.9,0-51.9
	C264.3,67.4,267.9,48.6,253.5,34.3z"/>
<g>
	<g>
		<path d="M187.3,273.6H163c3,17.9,11,34.2,23.8,49.1c16.8,19.5,40.1,29.3,69.9,29.3c13.4,0,25.5-2,36.1-6.1
			c10.6-4.1,20.2-10,28.7-17.9c8.5-7.8,16-18.1,22.5-30.9l-19.8-10.4c-7.2,11.9-13.8,20.6-20,25.9c-6.2,5.4-13.7,9.7-22.5,12.9
			c-8.8,3.2-17.9,4.9-27.2,4.9c-19.3,0-35.5-6.8-48.6-20.4C196.3,300,190.1,287.9,187.3,273.6L187.3,273.6z"/>
	</g>
	<g>
		<path d="M255.3,159.9c-30.3,0-54.4,11.5-72.5,34.6c-10.2,13-16.8,27.4-19.6,43h-11.6V258h101.9v-0.1l2.3,0v0.1h101.9v-20.5h-9.4
			c-2.8-16.2-8.9-30.2-18.4-42.2C311.4,171.7,286.5,159.9,255.3,159.9L255.3,159.9z M188.1,237.5c4.8-16.8,11.9-29.4,21.4-37.8
			c12.9-11.5,28.3-17.3,46.2-17.3c10.9,0,21.2,2.3,31.1,6.9c9.9,4.6,17.8,10.6,23.8,18.1c6,7.5,10.6,17.5,13.7,30.1h-68.4h-2.3
			H188.1L188.1,237.5z"/>
	</g>
</g>
</svg>
