<?xml version="1.0" encoding="utf-8"?>
<!-- Generator: Adobe Illustrator 25.0.1, SVG Export Plug-In . SVG Version: 6.00 Build 0)  -->
<svg version="1.1" id="Layer_1" xmlns="http://www.w3.org/2000/svg" xmlns:xlink="http://www.w3.org/1999/xlink" x="0px" y="0px"
	 viewBox="0 0 512 512" style="enable-background:new 0 0 512 512; fill:#e53935;" xml:space="preserve">
<style type="text/css">
	.st0{stroke:#e53935;stroke-width:16.7;stroke-miterlimit:10;}
	.st1{display:none;}
</style>
<g>
	<path d="M91.1,220h-49v26.4h45.1c3.3,0,5.8,0.7,7.4,2.2c1.6,1.5,2.5,3.5,2.5,5.9c0,2.4-0.8,4.4-2.4,6c-1.6,1.5-4.1,2.3-7.5,2.3
		H42.1v30.5h50.7c3.4,0,6,0.8,7.7,2.4c1.7,1.6,2.6,3.7,2.6,6.3c0,2.5-0.9,4.6-2.6,6.2c-1.7,1.6-4.3,2.4-7.7,2.4H33.6
		c-4.7,0-8.1-1-10.2-3.1c-2.1-2.1-3.1-5.5-3.1-10.2v-80.7c0-3.1,0.5-5.7,1.4-7.7c0.9-2,2.4-3.4,4.4-4.3c2-0.9,4.5-1.4,7.6-1.4h57.4
		c3.5,0,6,0.8,7.7,2.3s2.5,3.6,2.5,6c0,2.5-0.8,4.6-2.5,6.1S94.5,220,91.1,220z"/>
	<path d="M284.8,220h-23.7v79.2c0,4.5-1,7.8-3,10c-2,2.2-4.6,3.3-7.8,3.3c-3.2,0-5.8-1.1-7.9-3.3c-2-2.2-3-5.5-3-10V220h-23.7
		c-3.7,0-6.5,0.4-8.3-1.3c-1.8-1.6-2.7-3.8-2.7-6.5c0-2.8,0.9-5,2.8-6.6c1.9-1.6,4.6-2.4,8.2-2.4h69.1c3.8,0,6.6,0.8,8.4,2.5
		c1.8,1.7,2.7,3.8,2.7,6.5c0,2.7-0.9,4.8-2.8,6.5C291.3,220.4,288.5,220,284.8,220z"/>
	<path d="M453.1,310.6h-32.8c-4.7,0-8.1-1.1-10.1-3.2c-2-2.1-3-5.5-3-10.1v-80.7c0-4.7,1-8.1,3.1-10.2c2.1-2.1,5.4-3.1,10.1-3.1
		h34.8c5.1,0,9.6,0.3,13.3,1c3.8,0.6,7.1,1.9,10.1,3.7c2.5,1.5,4.8,3.4,6.7,5.7c2,2.3,3.4,4.9,4.5,7.7c1,2.8,1.5,5.8,1.5,8.9
		c0,10.7-5.4,18.6-16.1,23.6c14.1,4.5,21.2,13.2,21.2,26.2c0,6-1.5,11.4-4.6,16.2c-3.1,4.8-7.2,8.4-12.5,10.7
		c-3.3,1.4-7,2.3-11.3,2.9S458.8,310.6,453.1,310.6z M428.9,219.6v27.8h19.9c5.4,0,9.6-0.5,12.6-1.5c3-1,5.2-3,6.8-5.9
		c1.2-2.1,1.8-4.3,1.8-6.9c0-5.4-1.9-9-5.8-10.8c-3.9-1.8-9.7-2.7-17.7-2.7H428.9z M451.5,262.9h-22.6v31.3h23.4
		c14.7,0,22-5.3,22-15.9c0-5.4-1.9-9.3-5.7-11.8C464.7,264.1,459.1,262.9,451.5,262.9z"/>
</g>
<line class="st0" x1="33.6" y1="211.6" x2="418.2" y2="211.6"/>
<path class="st1" d="M-76.5,355.4l-12.8-11.6h-109.1l-12.8,11.9c-5,4.6-9.3,7.8-12.8,9.4c-3.5,1.6-9.3,2.4-17.4,2.4
	c-6.8,0-12.9-0.9-18.1-2.6c-5.2-1.7-7.9-3.7-7.9-5.9c0-1.3,0.6-2.6,1.8-3.9c1.2-1.3,3.2-3.2,6-5.6l68.6-60.2c2-1.7,4.3-3.8,7-6.2
	c2.7-2.4,5.7-4.4,8.8-6c3.1-1.6,7.2-2.9,12.3-3.9c5.1-1,11.3-1.5,18.8-1.5c7.6,0,13.9,0.5,18.9,1.5c5.1,1,9.2,2.3,12.3,3.8
	c3.1,1.6,5.7,3.2,7.9,5c2.1,1.8,4.9,4.2,8.1,7.2l70.1,59.8c5.5,4.6,8.2,7.9,8.2,9.9c0,2.1-2.6,4.1-7.8,5.9
	c-5.2,1.8-11.4,2.7-18.8,2.7c-4.3,0-7.9-0.3-11-0.8c-3.1-0.5-5.6-1.2-7.7-2.1c-2.1-0.9-4.3-2.3-6.7-4.2S-74.8,356.8-76.5,355.4z
	 M-184.1,329.6h80.2l-40.5-38.2L-184.1,329.6z"/>
<path d="M191.3,288.7l-2.9-8h-25.1l-2.9,8.2c-1.2,3.2-2.1,5.3-2.9,6.5c-0.8,1.1-2.1,1.7-4,1.7c-1.6,0-3-0.6-4.2-1.8
	c-1.2-1.2-1.8-2.5-1.8-4c0-0.9,0.1-1.8,0.4-2.7c0.3-0.9,0.7-2.2,1.4-3.9l15.8-41.4c0.4-1.2,1-2.6,1.6-4.3c0.6-1.7,1.3-3.1,2-4.2
	c0.7-1.1,1.7-2,2.8-2.7c1.2-0.7,2.6-1,4.3-1c1.7,0,3.2,0.3,4.4,1c1.2,0.7,2.1,1.6,2.8,2.6c0.7,1.1,1.3,2.2,1.8,3.5
	c0.5,1.2,1.1,2.9,1.9,4.9l16.1,41.2c1.3,3.1,1.9,5.4,1.9,6.8c0,1.5-0.6,2.8-1.8,4.1c-1.2,1.2-2.6,1.8-4.3,1.8c-1,0-1.8-0.2-2.5-0.5
	c-0.7-0.4-1.3-0.9-1.8-1.5c-0.5-0.6-1-1.6-1.5-2.9C192.2,290.8,191.7,289.7,191.3,288.7z M166.5,271H185l-9.3-26.3L166.5,271z"/>
<path d="M339.9,288.7l-2.9-8h-25.1l-2.9,8.2c-1.2,3.2-2.1,5.3-2.9,6.5c-0.8,1.1-2.1,1.7-4,1.7c-1.6,0-3-0.6-4.2-1.8
	c-1.2-1.2-1.8-2.5-1.8-4c0-0.9,0.1-1.8,0.4-2.7c0.3-0.9,0.7-2.2,1.4-3.9l15.8-41.4c0.4-1.2,1-2.6,1.6-4.3c0.6-1.7,1.3-3.1,2-4.2
	c0.7-1.1,1.7-2,2.8-2.7c1.2-0.7,2.6-1,4.3-1c1.7,0,3.2,0.3,4.4,1c1.2,0.7,2.1,1.6,2.8,2.6c0.7,1.1,1.3,2.2,1.8,3.5
	c0.5,1.2,1.1,2.9,1.9,4.9l16.1,41.2c1.3,3.1,1.9,5.4,1.9,6.8c0,1.5-0.6,2.8-1.8,4.1c-1.2,1.2-2.6,1.8-4.3,1.8c-1,0-1.8-0.2-2.5-0.5
	c-0.7-0.4-1.3-0.9-1.8-1.5c-0.5-0.6-1-1.6-1.5-2.9C340.7,290.8,340.3,289.7,339.9,288.7z M315.1,271h18.5l-9.3-26.3L315.1,271z"/>
</svg>
